<svg width="100" height="34" viewBox="0 0 100 34" fill="none" xmlns="http://www.w3.org/2000/svg">
<g clip-path="url(#clip0_302_9)">
<path d="M6.63991 14H4.3331L7.84801 3.81818H10.6222L14.1321 14H11.8253L9.27486 6.14489H9.19531L6.63991 14ZM6.49574 9.99787H11.9446V11.6783H6.49574V9.99787ZM18.4126 14.1491C17.6304 14.1491 16.9576 13.9834 16.3942 13.652C15.834 13.3172 15.4032 12.8532 15.1016 12.2599C14.8033 11.6667 14.6541 10.9839 14.6541 10.2116C14.6541 9.42945 14.8049 8.74337 15.1065 8.15341C15.4115 7.56013 15.844 7.09777 16.4041 6.76633C16.9643 6.43158 17.6304 6.2642 18.4027 6.2642C19.0689 6.2642 19.6522 6.38518 20.1527 6.62713C20.6532 6.86908 21.0492 7.20881 21.3409 7.64631C21.6326 8.08381 21.7933 8.59754 21.8232 9.1875H19.8246C19.7682 8.80634 19.6191 8.49976 19.3771 8.26776C19.1385 8.03243 18.8253 7.91477 18.4375 7.91477C18.1094 7.91477 17.8227 8.00426 17.5774 8.18324C17.3355 8.3589 17.1465 8.61577 17.0107 8.95384C16.8748 9.2919 16.8068 9.70123 16.8068 10.1818C16.8068 10.669 16.8731 11.0833 17.0057 11.4247C17.1416 11.7661 17.3321 12.0263 17.5774 12.2053C17.8227 12.3842 18.1094 12.4737 18.4375 12.4737C18.6795 12.4737 18.8965 12.424 19.0888 12.3246C19.2843 12.2251 19.4451 12.081 19.571 11.892C19.7003 11.6998 19.7848 11.4695 19.8246 11.201H21.8232C21.79 11.7843 21.6309 12.2981 21.3459 12.7422C21.0642 13.183 20.6747 13.5277 20.1776 13.7763C19.6804 14.0249 19.0921 14.1491 18.4126 14.1491ZM23.1792 14V6.36364H25.1976V7.71094H25.2871C25.4462 7.26349 25.7114 6.91051 26.0826 6.65199C26.4538 6.39347 26.8979 6.2642 27.415 6.2642C27.9386 6.2642 28.3844 6.39512 28.7523 6.65696C29.1202 6.91548 29.3655 7.26681 29.4881 7.71094H29.5676C29.7234 7.27344 30.0051 6.92377 30.4128 6.66193C30.8238 6.39678 31.3094 6.2642 31.8695 6.2642C32.5821 6.2642 33.1605 6.49124 33.6046 6.94531C34.052 7.39607 34.2757 8.03575 34.2757 8.86435V14H32.1628V9.28196C32.1628 8.85772 32.0501 8.53954 31.8248 8.32741C31.5994 8.11529 31.3176 8.00923 30.9796 8.00923C30.5951 8.00923 30.2952 8.13187 30.0797 8.37713C29.8643 8.61908 29.7566 8.93892 29.7566 9.33665V14H27.7033V9.23722C27.7033 8.86269 27.5956 8.56439 27.3801 8.34233C27.168 8.12026 26.888 8.00923 26.54 8.00923C26.3046 8.00923 26.0925 8.06889 25.9036 8.18821C25.718 8.30421 25.5705 8.46828 25.4611 8.6804C25.3517 8.8892 25.2971 9.13447 25.2971 9.41619V14H23.1792ZM39.4288 14.1491C38.6433 14.1491 37.9672 13.9901 37.4004 13.6719C36.8369 13.3504 36.4028 12.8963 36.0978 12.3097C35.7929 11.7197 35.6404 11.022 35.6404 10.2166C35.6404 9.43111 35.7929 8.74171 36.0978 8.14844C36.4028 7.55516 36.832 7.0928 37.3855 6.76136C37.9423 6.42992 38.5952 6.2642 39.3443 6.2642C39.8481 6.2642 40.3171 6.34541 40.7512 6.50781C41.1887 6.6669 41.5699 6.9072 41.8947 7.22869C42.2228 7.55019 42.478 7.95455 42.6603 8.44176C42.8426 8.92566 42.9338 9.49242 42.9338 10.142V10.7237H36.4856V9.41122H40.9402C40.9402 9.1063 40.8739 8.83617 40.7413 8.60085C40.6087 8.36553 40.4248 8.18158 40.1895 8.04901C39.9574 7.91312 39.6873 7.84517 39.3791 7.84517C39.0576 7.84517 38.7725 7.91974 38.524 8.06889C38.2787 8.21473 38.0865 8.41193 37.9473 8.66051C37.8081 8.90578 37.7368 9.17921 37.7335 9.48082V10.7287C37.7335 11.1065 37.8031 11.433 37.9423 11.7081C38.0848 11.9832 38.2853 12.1953 38.5439 12.3445C38.8024 12.4936 39.109 12.5682 39.4636 12.5682C39.6989 12.5682 39.9144 12.535 40.1099 12.4688C40.3055 12.4025 40.4728 12.303 40.612 12.1705C40.7512 12.0379 40.8573 11.8755 40.9302 11.6832L42.889 11.8125C42.7896 12.2831 42.5858 12.6941 42.2775 13.0455C41.9726 13.3935 41.5782 13.6652 41.0943 13.8608C40.6137 14.053 40.0585 14.1491 39.4288 14.1491ZM7.03764 21.8182V32H4.88494V21.8182H7.03764ZM10.8869 27.5852V32H8.769V24.3636H10.7875V25.7109H10.877C11.046 25.2668 11.3294 24.9155 11.7271 24.657C12.1248 24.3951 12.6071 24.2642 13.1738 24.2642C13.7041 24.2642 14.1665 24.3802 14.5609 24.6122C14.9553 24.8442 15.2619 25.1757 15.4806 25.6065C15.6994 26.0341 15.8088 26.5445 15.8088 27.1378V32H13.6909V27.5156C13.6942 27.0483 13.5749 26.6837 13.3329 26.4219C13.091 26.1567 12.7579 26.0241 12.3336 26.0241C12.0486 26.0241 11.7967 26.0855 11.5779 26.2081C11.3625 26.3307 11.1935 26.5097 11.0708 26.745C10.9515 26.977 10.8902 27.2571 10.8869 27.5852ZM20.9283 32.1491C20.1461 32.1491 19.4732 31.9834 18.9098 31.652C18.3497 31.3172 17.9188 30.8532 17.6172 30.2599C17.3189 29.6667 17.1697 28.9839 17.1697 28.2116C17.1697 27.4295 17.3205 26.7434 17.6222 26.1534C17.9271 25.5601 18.3596 25.0978 18.9197 24.7663C19.4799 24.4316 20.1461 24.2642 20.9183 24.2642C21.5845 24.2642 22.1679 24.3852 22.6683 24.6271C23.1688 24.8691 23.5649 25.2088 23.8565 25.6463C24.1482 26.0838 24.3089 26.5975 24.3388 27.1875H22.3402C22.2839 26.8063 22.1347 26.4998 21.8928 26.2678C21.6541 26.0324 21.3409 25.9148 20.9531 25.9148C20.625 25.9148 20.3383 26.0043 20.093 26.1832C19.8511 26.3589 19.6622 26.6158 19.5263 26.9538C19.3904 27.2919 19.3224 27.7012 19.3224 28.1818C19.3224 28.669 19.3887 29.0833 19.5213 29.4247C19.6572 29.7661 19.8478 30.0263 20.093 30.2053C20.3383 30.3842 20.625 30.4737 20.9531 30.4737C21.1951 30.4737 21.4122 30.424 21.6044 30.3246C21.8 30.2251 21.9607 30.081 22.0866 29.892C22.2159 29.6998 22.3004 29.4695 22.3402 29.201H24.3388C24.3056 29.7843 24.1465 30.2981 23.8615 30.7422C23.5798 31.183 23.1903 31.5277 22.6932 31.7763C22.196 32.0249 21.6077 32.1491 20.9283 32.1491ZM26.9327 32.1293C26.6046 32.1293 26.3229 32.0133 26.0875 31.7812C25.8555 31.5459 25.7395 31.2642 25.7395 30.9361C25.7395 30.6113 25.8555 30.3329 26.0875 30.1009C26.3229 29.8688 26.6046 29.7528 26.9327 29.7528C27.2509 29.7528 27.5293 29.8688 27.7679 30.1009C28.0066 30.3329 28.1259 30.6113 28.1259 30.9361C28.1259 31.1548 28.0695 31.3554 27.9569 31.5376C27.8475 31.7166 27.7033 31.8608 27.5243 31.9702C27.3453 32.0762 27.1481 32.1293 26.9327 32.1293Z" fill="white"/>
</g>
<defs>
<clipPath id="clip0_302_9">
<rect width="100" height="34" fill="white"/>
</clipPath>
</defs>
</svg>
